<?xml version="1.0" standalone="no"?>
<!DOCTYPE svg PUBLIC "-//W3C//DTD SVG 20010904//EN"
 "http://www.w3.org/TR/2001/REC-SVG-20010904/DTD/svg10.dtd">
<svg version="1.0" xmlns="http://www.w3.org/2000/svg"
 width="1387.000000pt" height="1387.000000pt" viewBox="0 0 1387.000000 1387.000000"
 preserveAspectRatio="xMidYMid meet">
<metadata>
Created by potrace 1.11, written by Peter Selinger 2001-2013
</metadata>
<g transform="translate(0.000000,1387.000000) scale(0.100000,-0.100000)"
fill="#000000" stroke="none">
<path d="M6630 10188 c-1 -18 -1 -4257 -1 -4289 l1 -26 345 0 345 0 0 561 0
561 113 108 c61 60 153 149 203 198 102 100 94 99 144 13 14 -23 73 -118 131
-211 59 -92 181 -287 273 -433 91 -146 169 -269 173 -275 5 -5 44 -66 86 -135
43 -69 115 -183 160 -255 l82 -130 422 -1 c409 -1 422 0 412 18 -5 10 -130
199 -278 421 -147 221 -375 564 -506 762 -131 198 -301 454 -378 569 l-140
210 120 115 c113 109 413 397 562 540 36 35 153 147 260 250 106 102 206 198
222 212 16 14 29 28 29 31 0 3 -190 6 -422 5 l-423 0 -336 -341 c-185 -188
-465 -471 -623 -631 l-286 -290 0 1228 0 1227 -345 0 c-269 0 -345 -3 -345
-12z"/>
<path d="M4547 9095 c-1 -2 -51 -5 -112 -9 -60 -3 -121 -8 -135 -11 -13 -2
-42 -7 -65 -10 -58 -8 -211 -51 -289 -80 -261 -98 -496 -279 -655 -502 -104
-147 -210 -386 -245 -558 -2 -5 -8 -35 -14 -65 -6 -30 -14 -68 -17 -85 -26
-157 -26 -530 1 -668 2 -12 8 -47 14 -77 44 -240 148 -482 288 -668 225 -300
599 -510 992 -557 113 -13 153 -16 265 -16 524 0 949 189 1237 549 187 234
304 547 335 897 13 146 7 420 -12 525 -3 14 -7 39 -10 55 -19 111 -37 181 -76
292 -79 225 -195 410 -351 561 -76 74 -197 170 -245 194 -15 8 -57 31 -93 51
-116 64 -324 135 -445 152 -23 3 -52 7 -65 10 -37 7 -297 24 -303 20z m163
-560 c257 -32 492 -212 623 -480 101 -207 152 -527 122 -770 -3 -27 -8 -68
-11 -90 -10 -76 -54 -233 -88 -315 -122 -287 -356 -487 -624 -531 -74 -12
-224 -14 -289 -5 -361 55 -624 331 -717 750 -56 250 -54 467 8 741 2 11 18 60
35 109 114 329 386 563 685 592 34 3 62 7 64 8 4 4 134 -2 192 -9z"/>
<path d="M11057 9094 c-1 -1 -51 -4 -112 -8 -130 -7 -171 -12 -340 -41 -166
-28 -398 -126 -524 -221 -121 -91 -244 -242 -303 -373 -39 -85 -77 -236 -85
-331 l-5 -75 341 1 c188 1 344 3 346 6 2 2 7 19 10 38 57 333 363 494 848 445
318 -32 490 -186 481 -432 -6 -188 -111 -284 -365 -338 -63 -13 -145 -26 -184
-29 -38 -4 -87 -9 -107 -11 -128 -17 -148 -20 -238 -35 -30 -5 -72 -12 -94
-15 -99 -12 -262 -38 -311 -49 -5 -2 -28 -6 -50 -11 -134 -26 -327 -96 -394
-144 -16 -12 -34 -21 -40 -21 -6 0 -11 -4 -11 -9 0 -5 -8 -12 -19 -16 -33 -10
-160 -145 -205 -219 -89 -143 -120 -269 -121 -491 0 -158 9 -220 51 -337 67
-186 233 -366 422 -458 74 -36 217 -86 265 -94 20 -3 56 -10 79 -15 90 -19
304 -31 326 -17 5 3 13 29 17 58 4 29 8 60 10 68 2 8 6 33 9 55 4 23 8 52 11
65 3 13 7 42 10 65 4 22 13 78 21 124 8 46 14 89 14 96 0 11 -37 20 -126 31
-137 17 -304 114 -379 221 -36 51 -48 166 -30 282 16 105 108 227 215 288 85
48 247 97 395 118 17 2 77 11 134 20 57 9 122 18 145 20 63 5 147 15 191 21
48 7 182 43 204 55 9 4 39 19 66 33 l50 24 -2 -193 -3 -193 28 -6 c15 -3 43
-8 62 -10 19 -3 46 -8 60 -11 14 -3 45 -8 70 -11 25 -3 52 -7 61 -10 9 -3 32
-7 51 -9 19 -2 90 -14 158 -25 69 -12 144 -24 167 -27 l42 -5 -3 683 c-2 604
-4 693 -19 761 -76 339 -386 590 -832 672 -11 2 -40 7 -65 11 -25 4 -54 9 -65
11 -30 6 -323 22 -328 18z"/>
<path d="M125 9002 c-3 -3 -5 -126 -5 -274 l0 -268 805 0 805 0 -117 -142
c-65 -79 -126 -152 -135 -163 -30 -35 -462 -560 -498 -605 -19 -23 -58 -71
-86 -104 -29 -34 -129 -156 -224 -272 -95 -115 -184 -223 -198 -240 -15 -17
-43 -50 -62 -74 -19 -24 -82 -100 -139 -169 -57 -69 -117 -143 -135 -165 -17
-21 -36 -43 -41 -50 -6 -6 -29 -34 -53 -62 l-42 -52 0 -244 0 -245 1378 0
1379 0 0 274 0 273 -939 0 -939 0 18 23 c17 22 96 116 118 141 20 23 122 142
142 166 25 30 147 174 213 250 26 30 89 104 141 165 52 60 104 121 116 135 19
22 256 301 382 449 50 59 118 138 160 186 14 17 58 68 97 115 39 47 146 172
237 278 l165 194 -1 241 -2 242 -1267 1 c-697 1 -1270 -1 -1273 -4z"/>
<path d="M11346 6603 c-3 -10 -8 -38 -11 -63 -3 -25 -12 -81 -20 -125 -8 -44
-17 -100 -20 -125 -3 -25 -8 -52 -10 -60 -2 -8 -7 -35 -10 -60 -3 -25 -10 -67
-15 -95 -5 -27 -12 -68 -15 -90 -3 -22 -12 -76 -20 -120 -8 -44 -17 -96 -19
-115 -2 -19 -12 -78 -21 -130 -9 -52 -18 -107 -21 -122 -2 -16 -6 -40 -9 -55
-7 -45 -66 -405 -71 -438 -2 -16 -9 -57 -15 -90 -6 -33 -12 -71 -14 -85 -2
-14 -6 -41 -10 -60 -11 -62 -29 -176 -40 -255 -4 -22 -8 -47 -10 -55 -2 -8 -7
-37 -11 -65 -3 -27 -7 -52 -9 -55 -2 -3 -6 -30 -10 -60 -4 -30 -8 -57 -10 -60
-2 -3 -7 -33 -10 -65 -4 -33 -9 -62 -10 -65 -2 -3 7 -7 21 -8 13 -1 75 -11
137 -21 61 -11 130 -22 152 -26 65 -9 97 -15 150 -25 28 -6 66 -12 85 -14 19
-3 49 -7 65 -10 44 -8 265 -44 300 -49 33 -6 155 -25 195 -32 174 -29 220 -37
250 -41 19 -2 60 -9 90 -15 30 -6 71 -12 90 -15 19 -2 46 -6 60 -9 14 -3 41
-7 60 -10 19 -3 60 -10 90 -15 30 -5 69 -12 85 -14 17 -3 84 -14 150 -25 66
-11 136 -23 155 -25 31 -5 189 -31 245 -40 104 -19 145 -25 145 -23 0 1 5 29
10 62 6 33 13 76 16 95 3 19 7 46 10 60 12 68 53 320 58 355 4 23 8 52 11 65
6 30 13 73 20 120 2 19 7 45 9 56 2 12 7 39 10 60 10 67 18 118 22 139 2 11 9
49 15 85 5 36 12 76 14 90 2 14 7 41 10 60 3 19 8 47 11 62 3 15 7 39 9 55 2
15 6 42 9 58 22 129 56 337 60 370 3 22 8 51 10 65 5 26 26 151 31 185 2 11 6
36 10 55 3 19 8 46 10 60 10 68 18 117 21 135 6 27 13 73 19 110 2 17 7 51 11
76 l6 46 -38 8 c-22 4 -52 9 -69 11 -16 2 -52 8 -80 14 -27 5 -68 12 -90 15
-22 3 -65 10 -95 15 -30 5 -73 12 -95 15 -22 4 -47 8 -55 10 -8 3 -46 9 -85
15 -89 13 -115 17 -250 40 -60 10 -128 21 -150 25 -22 3 -47 7 -55 10 -8 2
-35 6 -60 9 -25 4 -56 8 -70 11 -14 2 -68 11 -120 20 -52 8 -106 17 -120 19
-14 3 -42 7 -62 10 -21 3 -75 12 -120 20 -46 8 -103 17 -128 21 -25 3 -52 8
-60 10 -8 3 -35 7 -60 11 -64 9 -69 9 -240 39 -183 31 -185 31 -275 45 -108
17 -128 21 -136 26 -4 2 -10 -4 -13 -13z"/>
</g>
</svg>
